<svg width="38" height="28" viewBox="0 0 38 28" fill="none" xmlns="http://www.w3.org/2000/svg">
<path d="M1 2C1 1.44771 1.44771 1 2 1H35.2414C35.7937 1 36.2414 1.44772 36.2414 2V10.1724H1V2Z" stroke="#7DE1C9" stroke-width="2"/>
<path d="M1 10.3103H36.2414V12.8966C36.2414 13.4488 35.7937 13.8966 35.2414 13.8966H2C1.44772 13.8966 1 13.4488 1 12.8966V10.3103Z" stroke="#7DE1C9" stroke-width="2"/>
<path d="M11.1724 3.72414H26.0689" stroke="#C5EAE1" stroke-linecap="round"/>
<path d="M5.58626 16.7586C4.1811 17.6453 3.72417 19.5517 5.58622 21.4138C7.44827 23.2758 6.99144 26.1133 5.58627 27" stroke="#C5EAE1" stroke-linecap="round"/>
<path d="M32.2552 16.7586C33.6603 17.6453 34.1173 19.5517 32.2552 21.4138C30.3932 23.2758 30.85 26.1133 32.2552 27" stroke="#C5EAE1" stroke-linecap="round"/>
<path d="M10.5415 16.7586C9.1363 17.6453 8.67937 19.5517 10.5414 21.4138C12.4035 23.2758 11.9466 26.1133 10.5415 27" stroke="#C5EAE1" stroke-linecap="round"/>
<path d="M27.3 16.7586C28.7051 17.6453 29.1621 19.5517 27.3 21.4138C25.438 23.2758 25.8948 26.1133 27.3 27" stroke="#C5EAE1" stroke-linecap="round"/>
</svg>
