<svg width="44" height="44" viewBox="0 0 44 44" fill="none" xmlns="http://www.w3.org/2000/svg">
<path d="M34.8333 40.3333H9.16667C7.14162 40.3333 5.5 38.6917 5.5 36.6667V11C5.5 8.97495 7.14162 7.33332 9.16667 7.33332H12.8333V3.66666H16.5V7.33332H27.5V3.66666H31.1667V7.33332H34.8333C36.8584 7.33332 38.5 8.97495 38.5 11V36.6667C38.5 38.6917 36.8584 40.3333 34.8333 40.3333ZM9.16667 18.3333V36.6667H34.8333V18.3333H9.16667ZM9.16667 11V14.6667H34.8333V11H9.16667ZM17.9667 34.8333H14.6667V31.5333L22.3667 23.8517L25.6667 27.1517L17.9667 34.8333ZM26.8125 26.0003L23.5125 22.7003L26.0333 20.1905L29.3333 23.4905L26.8217 26.0022L26.8125 26.0003Z" fill="white"/>
</svg>
