<svg width="45" height="40" viewBox="0 0 45 40" fill="none" xmlns="http://www.w3.org/2000/svg">
<path d="M22.5376 36.6666C12.611 36.6564 4.56657 29.2004 4.55566 19.9999C5.2637 20.1853 5.99575 20.28 6.73148 20.2816C9.16534 20.2981 11.452 19.2029 12.8453 17.3533C14.091 15.6859 14.3543 13.5515 13.5466 11.6666C14.063 11.752 14.5865 11.7955 15.111 11.7966C17.4431 11.8127 19.6564 10.845 21.126 9.16663C22.5641 7.53789 23.1264 5.39199 22.6545 3.33333C32.5856 3.36324 40.6102 10.8494 40.578 20.0541C40.5457 29.2588 32.4687 36.6964 22.5376 36.6666ZM23.9096 30.9465C24.1862 31.0567 24.4842 31.1135 24.7853 31.1132C25.6941 31.1124 26.513 30.6049 26.8611 29.8269C27.2093 29.0489 27.0181 28.1532 26.3767 27.5565C25.954 27.1664 25.3819 26.9471 24.7853 26.9465C23.7182 26.9488 22.7999 27.6462 22.5877 28.6156C22.3755 29.5849 22.9278 30.5589 23.9096 30.9465ZM13.4028 28.1249C13.7631 28.263 14.1493 28.3338 14.5392 28.3332C15.7558 28.3329 16.8515 27.6511 17.3125 26.6076C17.7735 25.5642 17.5083 24.3659 16.6413 23.5749C16.0809 23.0633 15.3258 22.7766 14.5392 22.7766C12.8848 22.7784 11.5444 24.0215 11.5434 25.5549C11.5437 26.6695 12.2611 27.6766 13.3668 28.1149H13.3758H13.3956L13.4028 28.1249ZM30.3615 23.9466C31.5702 24.417 32.9685 24.1045 33.8129 23.1751C34.6573 22.2458 34.7518 20.9155 34.046 19.8916C33.825 19.5726 33.5362 19.2988 33.1973 19.0866C32.2664 18.504 31.0623 18.4526 30.0776 18.9534C29.0929 19.4543 28.493 20.4233 28.5232 21.4639C28.5535 22.5046 29.2089 23.4423 30.2213 23.8932H30.1997L30.2536 23.9149L30.2896 23.9282H30.2788C30.3045 23.9359 30.3297 23.9448 30.3543 23.9549L30.3615 23.9466ZM22.5376 17.2216C21.8204 17.2205 21.2027 17.6902 21.0638 18.3423C20.9249 18.9945 21.3036 19.6465 21.9674 19.8982C22.6313 20.1498 23.3944 19.9305 23.7883 19.375C24.1822 18.8195 24.0967 18.0832 23.5841 17.6183C23.4505 17.4963 23.2931 17.399 23.1202 17.3316L23.0878 17.3183L23.0393 17.3016C22.8783 17.2483 22.7085 17.2213 22.5376 17.2216ZM29.2808 10.2783C28.1302 10.2756 27.1645 11.0812 27.0465 12.142C26.9285 13.2029 27.6967 14.1741 28.8237 14.389C29.9507 14.6039 31.0701 13.9927 31.4136 12.9749C31.7571 11.9571 31.213 10.8636 30.1547 10.445H30.1367C29.866 10.3378 29.5752 10.2811 29.2808 10.2783ZM9.05114 15.8333C8.22388 15.8333 7.55325 15.2117 7.55325 14.4449C7.55325 13.6782 8.22388 13.0566 9.05114 13.0566C9.87841 13.0566 10.549 13.6782 10.549 14.4449C10.548 15.2113 9.878 15.8323 9.05114 15.8333ZM6.8034 11.6666C5.56201 11.6666 4.55566 10.7339 4.55566 9.5833C4.55566 8.43271 5.56201 7.49997 6.8034 7.49997C8.0448 7.49997 9.05114 8.43271 9.05114 9.5833C9.04916 10.7331 8.04397 11.6648 6.8034 11.6666ZM15.7944 8.8883C14.553 8.8883 13.5466 7.95556 13.5466 6.80498C13.5466 5.65439 14.553 4.72165 15.7944 4.72165C17.0358 4.72165 18.0421 5.65439 18.0421 6.80498C18.0421 7.95583 17.036 8.88905 15.7944 8.88997V8.8883ZM10.5508 6.11165C9.72381 6.11165 9.05327 5.49041 9.05294 4.72388C9.05261 3.95734 9.72261 3.33561 10.5496 3.33499C11.3767 3.33438 12.0477 3.95512 12.0487 4.72165C12.0487 5.48868 11.3784 6.11073 10.5508 6.11165Z" fill="#7DE1C9"/>
</svg>
