<svg width="26" height="34" viewBox="0 0 26 34" fill="none" xmlns="http://www.w3.org/2000/svg">
<path d="M13.0003 33.5C10.6847 31.5249 8.53834 29.3595 6.58366 27.0265C3.65033 23.523 0.166994 18.3054 0.166994 13.3334C0.164394 8.14053 3.29145 3.45791 8.08895 1.47059C12.8865 -0.516728 18.4088 0.582972 22.079 4.25653C24.4925 6.65931 25.8445 9.92774 25.8337 13.3334C25.8337 18.3054 22.3503 23.523 19.417 27.0265C17.4623 29.3595 15.316 31.5249 13.0003 33.5ZM13.0003 7.83336C11.0354 7.83336 9.21967 8.88166 8.23719 10.5834C7.25471 12.2851 7.25471 14.3817 8.23719 16.0834C9.21967 17.7851 11.0354 18.8334 13.0003 18.8334C16.0379 18.8334 18.5003 16.3709 18.5003 13.3334C18.5003 10.2958 16.0379 7.83336 13.0003 7.83336Z" fill="white"/>
</svg>
