<svg width="26" height="26" viewBox="0 0 26 26" fill="none" xmlns="http://www.w3.org/2000/svg">
<rect width="26" height="26" rx="7" fill="white"/>
<path d="M13.5656 6.8344C13.4156 6.68443 13.2122 6.60017 13 6.60017C12.7879 6.60017 12.5845 6.68443 12.4344 6.8344L6.83443 12.4344C6.68871 12.5853 6.60807 12.7874 6.60989 12.9971C6.61172 13.2069 6.69585 13.4075 6.84418 13.5559C6.9925 13.7042 7.19315 13.7883 7.40291 13.7901C7.61267 13.792 7.81475 13.7113 7.96563 13.5656L8.20003 13.3312V18.6C8.20003 18.8122 8.28432 19.0157 8.43435 19.1657C8.58438 19.3157 8.78786 19.4 9.00003 19.4H10.6C10.8122 19.4 11.0157 19.3157 11.1657 19.1657C11.3157 19.0157 11.4 18.8122 11.4 18.6V17C11.4 16.7878 11.4843 16.5843 11.6343 16.4343C11.7844 16.2843 11.9879 16.2 12.2 16.2H13.8C14.0122 16.2 14.2157 16.2843 14.3657 16.4343C14.5157 16.5843 14.6 16.7878 14.6 17V18.6C14.6 18.8122 14.6843 19.0157 14.8343 19.1657C14.9844 19.3157 15.1879 19.4 15.4 19.4H17C17.2122 19.4 17.4157 19.3157 17.5657 19.1657C17.7157 19.0157 17.8 18.8122 17.8 18.6V13.3312L18.0344 13.5656C18.1853 13.7113 18.3874 13.792 18.5972 13.7901C18.8069 13.7883 19.0076 13.7042 19.1559 13.5559C19.3042 13.4075 19.3883 13.2069 19.3902 12.9971C19.392 12.7874 19.3114 12.5853 19.1656 12.4344L13.5656 6.8344Z" fill="#7DE1C9"/>
</svg>
