<svg width="34" height="24" viewBox="0 0 34 24" fill="none" xmlns="http://www.w3.org/2000/svg">
<path d="M22.85 1.49999C22.595 1.49999 22.37 1.63499 22.235 1.84499L22.13 2.06999L14.36 19.545C14.12 19.98 13.97 20.46 13.97 20.985C13.97 22.65 15.32 24 16.985 24C18.425 24 19.64 22.98 19.925 21.615L19.94 21.57L23.6 2.24999C23.6 1.82999 23.27 1.49999 22.85 1.49999ZM0.5 7.49999L3.5 10.5C7.82 6.17999 13.685 4.37999 19.295 5.06999L21.08 1.04999C13.835 -0.240006 6.11 1.90499 0.5 7.49999ZM30.5 10.5L33.5 7.49999C31.04 5.03999 28.175 3.26999 25.115 2.14499L24.32 6.37499C26.57 7.30499 28.67 8.66999 30.5 10.5ZM24.5 16.5L27.5 13.5C26.3 12.3 24.95 11.37 23.51 10.665L22.685 15.045C23.315 15.45 23.93 15.93 24.5 16.5ZM6.5 13.5L9.5 16.5C11.195 14.805 13.34 13.815 15.545 13.5L17.465 9.17999C13.52 9.05999 9.515 10.485 6.5 13.5Z" fill="#7DE1C9"/>
</svg>
